<svg xmlns="http://www.w3.org/2000/svg" width="66" height="66" viewBox="0 0 66 66">
  <g id="Group_56" data-name="Group 56" transform="translate(-138 -670)">
    <circle id="Ellipse_5" data-name="Ellipse 5" cx="33" cy="33" r="33" transform="translate(138 670)" fill="#fff"/>
    <path id="google-brands" d="M24.772,20.883c0,7.183-4.919,12.294-12.183,12.294A12.589,12.589,0,1,1,12.589,8a12.106,12.106,0,0,1,8.442,3.294L17.6,14.589c-4.482-4.325-12.817-1.076-12.817,6a7.886,7.886,0,0,0,7.8,7.949c4.985,0,6.853-3.574,7.147-5.426H12.589v-4.33H24.574a11.036,11.036,0,0,1,.2,2.1Z" transform="translate(158.614 682.411)" fill="#ef5454"/>
  </g>
</svg>
